HIERARCHY
ROOT Hips
{
	OFFSET 0.000000 87.230942 0.000000
	CHANNELS 6 Xposition Yposition Zposition Xrotation Yrotation Zrotation
	JOINT Pelvis
	{
		OFFSET 0.000000 0.000000 0.000000
		CHANNELS 3 Xrotation Yrotation Zrotation
		JOINT LeftUpLeg
		{
			OFFSET 12.017000 -9.376404 -2.439400
			CHANNELS 3 Xrotation Yrotation Zrotation
			JOINT LeftLeg
			{
				OFFSET -0.007312 -32.846973 2.110600
				CHANNELS 3 Xrotation Yrotation Zrotation
				JOINT LeftFoot
				{
					OFFSET 0.007312 -32.065170 -0.570400
					CHANNELS 3 Xrotation Yrotation Zrotation
					JOINT LeftToeBase
					{
						OFFSET 0.728300 -11.045900 13.180700
						CHANNELS 3 Xrotation Yrotation Zrotation
						End Site
						{
							OFFSET 0.000000 17.212589 0.000000
						}
					}
				}
				JOINT LeftPantLeg
				{
					OFFSET 0.002788 -16.709013 -3.143600
					CHANNELS 3 Xrotation Yrotation Zrotation
					End Site
					{
						OFFSET -0.605125 24.528742 0.000000
					}
				}
			}
			JOINT Left_Butt
			{
				OFFSET -6.630234 1.326584 -3.183700
				CHANNELS 3 Xrotation Yrotation Zrotation
				End Site
				{
					OFFSET -0.498041 20.188049 0.000000
				}
			}
		}
		JOINT RightUpLeg
		{
			OFFSET -11.717000 -9.376404 -2.439400
			CHANNELS 3 Xrotation Yrotation Zrotation
			JOINT RightLeg
			{
				OFFSET -0.003241 -32.846912 2.110600
				CHANNELS 3 Xrotation Yrotation Zrotation
				JOINT RightFoot
				{
					OFFSET 0.003241 -32.065136 -0.570500
					CHANNELS 3 Xrotation Yrotation Zrotation
					JOINT RightToeBase
					{
						OFFSET -0.728300 -11.045901 13.180700
						CHANNELS 3 Xrotation Yrotation Zrotation
						End Site
						{
							OFFSET 0.000000 17.212593 0.000000
						}
					}
				}
				JOINT RightPantLeg
				{
					OFFSET 0.008142 -16.708982 -3.143700
					CHANNELS 3 Xrotation Yrotation Zrotation
					End Site
					{
						OFFSET 0.605088 24.528715 0.000000
					}
				}
			}
			JOINT Right_Butt
			{
				OFFSET 6.630732 1.326584 -3.183700
				CHANNELS 3 Xrotation Yrotation Zrotation
				End Site
				{
					OFFSET 0.498015 20.188240 0.000000
				}
			}
		}
	}
	JOINT Spine
	{
		OFFSET -0.062400 7.848404 3.918300
		CHANNELS 3 Xrotation Yrotation Zrotation
		JOINT Spine1
		{
			OFFSET -0.072800 11.422302 0.713400
			CHANNELS 3 Xrotation Yrotation Zrotation
			JOINT Spine2
			{
				OFFSET -0.083200 13.054001 -1.931600
				CHANNELS 3 Xrotation Yrotation Zrotation
				JOINT Neck
				{
					OFFSET -0.092200 14.121796 -5.138800
					CHANNELS 3 Xrotation Yrotation Zrotation
					JOINT Head
					{
						OFFSET 0.000200 10.447403 -0.842000
						CHANNELS 3 Xrotation Yrotation Zrotation
						JOINT Visor
						{
							OFFSET 0.457100 25.671204 16.550400
							CHANNELS 3 Xrotation Yrotation Zrotation
							End Site
							{
								OFFSET 0.000000 26.061493 0.000000
							}
						}
						JOINT HairMidA
						{
							OFFSET 0.459400 31.585403 8.437400
							CHANNELS 3 Xrotation Yrotation Zrotation
							End Site
							{
								OFFSET 0.000000 26.061493 0.000000
							}
						}
						JOINT HairMidB
						{
							OFFSET 0.464000 33.309204 -8.389700
							CHANNELS 3 Xrotation Yrotation Zrotation
							End Site
							{
								OFFSET 0.000000 26.061493 0.000000
							}
						}
						JOINT HairMidC
						{
							OFFSET 0.466600 27.991196 -17.375099
							CHANNELS 3 Xrotation Yrotation Zrotation
							End Site
							{
								OFFSET 0.000000 26.061493 0.000000
							}
						}
						JOINT HairMidD
						{
							OFFSET 0.467700 17.888092 -21.169500
							CHANNELS 3 Xrotation Yrotation Zrotation
							End Site
							{
								OFFSET 0.000000 26.061493 0.000000
							}
						}
						JOINT HairMidE
						{
							OFFSET 5.325700 3.514603 -14.369699
							CHANNELS 3 Xrotation Yrotation Zrotation
							End Site
							{
								OFFSET 0.000000 26.061493 0.000000
							}
						}
						JOINT HairMidF
						{
							OFFSET -4.394100 3.514603 -14.372400
							CHANNELS 3 Xrotation Yrotation Zrotation
							End Site
							{
								OFFSET 0.000000 26.061493 0.000000
							}
						}
						JOINT HairLeftA
						{
							OFFSET 15.319900 25.746506 2.623300
							CHANNELS 3 Xrotation Yrotation Zrotation
							End Site
							{
								OFFSET 0.000000 26.061493 0.000000
							}
						}
						JOINT HairLeftB
						{
							OFFSET 12.619500 29.289398 -8.731499
							CHANNELS 3 Xrotation Yrotation Zrotation
							End Site
							{
								OFFSET 0.000000 26.061493 0.000000
							}
						}
						JOINT HairLeftC
						{
							OFFSET 15.714800 15.959900 2.909800
							CHANNELS 3 Xrotation Yrotation Zrotation
							End Site
							{
								OFFSET 0.000000 26.061493 0.000000
							}
						}
						JOINT HairLeftD
						{
							OFFSET 16.101700 18.437408 -7.553200
							CHANNELS 3 Xrotation Yrotation Zrotation
							End Site
							{
								OFFSET 0.000000 26.061493 0.000000
							}
						}
						JOINT HairLeftE
						{
							OFFSET 9.731900 17.915009 -18.316799
							CHANNELS 3 Xrotation Yrotation Zrotation
							End Site
							{
								OFFSET 0.000000 26.061493 0.000000
							}
						}
						JOINT HairLeftF
						{
							OFFSET 11.204300 4.953598 -9.668100
							CHANNELS 3 Xrotation Yrotation Zrotation
							End Site
							{
								OFFSET 0.000000 26.061493 0.000000
							}
						}
						JOINT HairRightA
						{
							OFFSET -14.397900 25.746307 2.615100
							CHANNELS 3 Xrotation Yrotation Zrotation
							End Site
							{
								OFFSET 0.000000 26.061493 0.000000
							}
						}
						JOINT HairRightB
						{
							OFFSET -11.691200 29.289200 -8.738199
							CHANNELS 3 Xrotation Yrotation Zrotation
							End Site
							{
								OFFSET 0.000000 26.061493 0.000000
							}
						}
						JOINT HairRightC
						{
							OFFSET -14.792900 15.959702 2.901400
							CHANNELS 3 Xrotation Yrotation Zrotation
							End Site
							{
								OFFSET 0.000000 26.061493 0.000000
							}
						}
						JOINT HairRightD
						{
							OFFSET -15.174000 18.437195 -7.561900
							CHANNELS 3 Xrotation Yrotation Zrotation
							End Site
							{
								OFFSET 0.000000 26.061493 0.000000
							}
						}
						JOINT HairRightE
						{
							OFFSET -8.798200 17.914902 -18.322001
							CHANNELS 3 Xrotation Yrotation Zrotation
							End Site
							{
								OFFSET 0.000000 26.061493 0.000000
							}
						}
						JOINT HairRightF
						{
							OFFSET -10.275200 4.953506 -9.674099
							CHANNELS 3 Xrotation Yrotation Zrotation
							End Site
							{
								OFFSET 0.000000 26.061493 0.000000
							}
						}
					}
				}
				JOINT LeftShoulder
				{
					OFFSET 5.133500 7.341202 -1.867600
					CHANNELS 3 Xrotation Yrotation Zrotation
					JOINT LeftArm
					{
						OFFSET 8.072663 0.936867 -2.176600
						CHANNELS 3 Xrotation Yrotation Zrotation
						JOINT LeftForeArm
						{
							OFFSET 31.271999 0.000000 0.000000
							CHANNELS 3 Xrotation Yrotation Zrotation
							JOINT LeftHand
							{
								OFFSET 31.771030 0.000000 0.000000
								CHANNELS 3 Xrotation Yrotation Zrotation
								JOINT LeftHandThumb1
								{
									OFFSET 2.886520 -2.557846 4.416640
									CHANNELS 3 Xrotation Yrotation Zrotation
									JOINT LeftHandThumb2
									{
										OFFSET 2.371025 -1.368912 1.368911
										CHANNELS 3 Xrotation Yrotation Zrotation
										JOINT LeftHandThumb3
										{
											OFFSET 2.243378 -1.295212 1.295213
											CHANNELS 3 Xrotation Yrotation Zrotation
											End Site
											{
												OFFSET -0.332611 2.876945 0.020015
											}
										}
									}
								}
								JOINT LeftHandIndex1
								{
									OFFSET 8.568985 -0.641945 3.119977
									CHANNELS 3 Xrotation Yrotation Zrotation
									JOINT LeftHandIndex2
									{
										OFFSET 3.348503 0.000000 0.000000
										CHANNELS 3 Xrotation Yrotation Zrotation
										JOINT LeftHandIndex3
										{
											OFFSET 3.314552 0.000000 0.000000
											CHANNELS 3 Xrotation Yrotation Zrotation
											End Site
											{
												OFFSET -1.032898 3.075485 0.678796
											}
										}
									}
								}
								JOINT LeftHandMiddle1
								{
									OFFSET 8.124603 0.000000 0.000000
									CHANNELS 3 Xrotation Yrotation Zrotation
									JOINT LeftHandMiddle2
									{
										OFFSET 4.166275 0.000000 0.000000
										CHANNELS 3 Xrotation Yrotation Zrotation
										JOINT LeftHandMiddle3
										{
											OFFSET 3.018135 0.000000 0.000000
											CHANNELS 3 Xrotation Yrotation Zrotation
											End Site
											{
												OFFSET -1.032700 2.767982 0.617226
											}
										}
									}
								}
								JOINT LeftHandRing1
								{
									OFFSET 8.571686 -0.031357 -2.884048
									CHANNELS 3 Xrotation Yrotation Zrotation
									JOINT LeftHandRing2
									{
										OFFSET 3.671181 0.000000 0.000000
										CHANNELS 3 Xrotation Yrotation Zrotation
										JOINT LeftHandRing3
										{
											OFFSET 2.728851 0.000000 0.000000
											CHANNELS 3 Xrotation Yrotation Zrotation
											End Site
											{
												OFFSET -0.815796 2.539223 0.577389
											}
										}
									}
								}
								JOINT LeftHandPinky1
								{
									OFFSET 7.854515 -0.675232 -5.213020
									CHANNELS 3 Xrotation Yrotation Zrotation
									JOINT LeftHandPinky2
									{
										OFFSET 3.068596 0.000000 0.000000
										CHANNELS 3 Xrotation Yrotation Zrotation
										JOINT LeftHandPinky3
										{
											OFFSET 2.396042 0.000000 0.000000
											CHANNELS 3 Xrotation Yrotation Zrotation
											End Site
											{
												OFFSET -0.524597 2.267998 0.567429
											}
										}
									}
								}
							}
							JOINT LeftSleeve
							{
								OFFSET 19.684509 -0.200119 0.476146
								CHANNELS 3 Xrotation Yrotation Zrotation
								End Site
								{
									OFFSET -0.031017 25.731133 -0.002868
								}
							}
						}
					}
				}
				JOINT RightShoulder
				{
					OFFSET -4.395900 7.341202 -1.870200
					CHANNELS 3 Xrotation Yrotation Zrotation
					JOINT RightArm
					{
						OFFSET -8.071453 0.936867 -2.181100
						CHANNELS 3 Xrotation Yrotation Zrotation
						JOINT RightForeArm
						{
							OFFSET -31.272011 0.000000 0.000000
							CHANNELS 3 Xrotation Yrotation Zrotation
							JOINT RightHand
							{
								OFFSET -31.771019 0.000000 0.000000
								CHANNELS 3 Xrotation Yrotation Zrotation
								JOINT RightHandThumb1
								{
									OFFSET -2.886520 -2.557808 4.416626
									CHANNELS 3 Xrotation Yrotation Zrotation
									JOINT RightHandThumb2
									{
										OFFSET -2.371056 -1.368927 1.368928
										CHANNELS 3 Xrotation Yrotation Zrotation
										JOINT RightHandThumb3
										{
											OFFSET -2.243362 -1.295204 1.295206
											CHANNELS 3 Xrotation Yrotation Zrotation
											End Site
											{
												OFFSET 0.332642 2.876938 0.020047
											}
										}
									}
								}
								JOINT RightHandIndex1
								{
									OFFSET -8.568993 -0.641953 3.120017
									CHANNELS 3 Xrotation Yrotation Zrotation
									JOINT RightHandIndex2
									{
										OFFSET -3.348518 0.000000 0.000000
										CHANNELS 3 Xrotation Yrotation Zrotation
										JOINT RightHandIndex3
										{
											OFFSET -3.314552 0.000000 0.000000
											CHANNELS 3 Xrotation Yrotation Zrotation
											End Site
											{
												OFFSET 1.032898 3.075478 0.678804
											}
										}
									}
								}
								JOINT RightHandMiddle1
								{
									OFFSET -8.124588 0.000000 0.000000
									CHANNELS 3 Xrotation Yrotation Zrotation
									JOINT RightHandMiddle2
									{
										OFFSET -4.166275 0.000000 0.000000
										CHANNELS 3 Xrotation Yrotation Zrotation
										JOINT RightHandMiddle3
										{
											OFFSET -3.018097 0.000000 0.000000
											CHANNELS 3 Xrotation Yrotation Zrotation
											End Site
											{
												OFFSET 1.032700 2.767937 0.617197
											}
										}
									}
								}
								JOINT RightHandRing1
								{
									OFFSET -8.571747 -0.031349 -2.884061
									CHANNELS 3 Xrotation Yrotation Zrotation
									JOINT RightHandRing2
									{
										OFFSET -3.671204 0.000000 0.000000
										CHANNELS 3 Xrotation Yrotation Zrotation
										JOINT RightHandRing3
										{
											OFFSET -2.728874 0.000000 0.000000
											CHANNELS 3 Xrotation Yrotation Zrotation
											End Site
											{
												OFFSET 0.815804 2.539261 0.577413
											}
										}
									}
								}
								JOINT RightHandPinky1
								{
									OFFSET -7.854561 -0.675247 -5.212970
									CHANNELS 3 Xrotation Yrotation Zrotation
									JOINT RightHandPinky2
									{
										OFFSET -3.068550 0.000000 0.000000
										CHANNELS 3 Xrotation Yrotation Zrotation
										JOINT RightHandPinky3
										{
											OFFSET -2.395981 0.000000 0.000000
											CHANNELS 3 Xrotation Yrotation Zrotation
											End Site
											{
												OFFSET 0.524605 2.267952 0.567413
											}
										}
									}
								}
							}
							JOINT RightSleeve
							{
								OFFSET -19.684753 -0.200165 0.476065
								CHANNELS 3 Xrotation Yrotation Zrotation
								End Site
								{
									OFFSET 0.031342 25.731255 -0.002917
								}
							}
						}
					}
				}
				JOINT Hood
				{
					OFFSET 0.369700 14.447800 -5.317800
					CHANNELS 3 Xrotation Yrotation Zrotation
					JOINT Hood1
					{
						OFFSET 0.001700 -5.553802 -5.895100
						CHANNELS 3 Xrotation Yrotation Zrotation
						JOINT Hood2
						{
							OFFSET -0.000200 -8.380501 0.763600
							CHANNELS 3 Xrotation Yrotation Zrotation
							End Site
							{
								OFFSET 0.000000 8.415215 0.000000
							}
						}
					}
				}
				JOINT Left_Breast
				{
					OFFSET 5.682500 3.120102 3.188800
					CHANNELS 3 Xrotation Yrotation Zrotation
					End Site
					{
						OFFSET 0.000000 10.528564 0.000000
					}
				}
				JOINT Right_Breast
				{
					OFFSET -4.947600 3.120102 3.185900
					CHANNELS 3 Xrotation Yrotation Zrotation
					End Site
					{
						OFFSET 0.000000 10.528564 0.000000
					}
				}
				JOINT Whistle
				{
					OFFSET 0.368200 11.471298 0.095400
					CHANNELS 3 Xrotation Yrotation Zrotation
					JOINT Whistle1
					{
						OFFSET -0.002000 -6.349899 7.479800
						CHANNELS 3 Xrotation Yrotation Zrotation
						JOINT Whistle2
						{
							OFFSET -0.001300 -8.217598 4.717600
							CHANNELS 3 Xrotation Yrotation Zrotation
							End Site
							{
								OFFSET 0.000000 9.475479 0.000000
							}
						}
					}
				}
			}
		}
		JOINT Belly
		{
			OFFSET 0.212400 1.593002 3.163700
			CHANNELS 3 Xrotation Yrotation Zrotation
			End Site
			{
				OFFSET 0.000000 7.496635 0.000000
			}
		}
	}
	JOINT FitGrandmaFacialAnim_Joint
	{
		OFFSET 1.150000 -86.211197 -1.220100
		CHANNELS 3 Xrotation Yrotation Zrotation
		End Site
		{
			OFFSET 0.000000 31.666618 0.000000
		}
	}
}
MOTION
Frames: 4
Frame Time: 0.016667
0.070873 84.565613 3.037931 -5.352578 -7.658568 6.314532 -0.000000 0.000001 -0.000000 -23.309533 7.888477 9.130501 21.865106 8.701745 0.631839 25.823161 9.253214 1.382561 0.000002 -0.000001 0.000000 -0.000000 0.000001 0.000000 0.000001 0.000001 0.000000 -4.995996 -7.535666 15.411178 19.905685 -11.259701 -1.175792 -13.714268 -13.474364 -21.282892 0.000000 -0.000006 0.000000 -0.000000 0.000000 0.000001 -0.000001 -0.000000 0.000001 0.577536 0.918270 -3.517621 0.947294 2.037202 -4.377106 0.968933 2.043659 -4.365420 2.884317 1.135687 4.005908 7.888286 9.350190 8.465890 0.000001 0.000000 0.000000 0.000001 0.000000 0.000000 0.000001 0.000000 0.000000 0.000001 0.000000 0.000000 0.000001 0.000000 0.000000 0.000001 0.000000 0.000000 0.000001 0.000000 0.000000 0.000001 0.000000 0.000000 0.000001 0.000000 0.000000 0.000001 0.000000 0.000000 0.000001 0.000000 0.000000 0.000001 0.000000 0.000000 0.000001 0.000000 0.000000 0.000001 0.000000 0.000000 0.000001 0.000000 0.000000 0.000001 0.000000 0.000000 0.000001 0.000000 0.000000 0.000001 0.000000 0.000000 0.000001 0.000000 0.000000 1.058070 -0.340529 -4.891290 -16.372105 12.814415 -32.934035 0.000008 -24.507079 0.000018 42.987595 -10.562036 -4.600050 -1.540039 3.690176 6.142338 3.946758 7.971411 0.752856 -0.000001 0.000002 0.000003 0.000000 -0.000005 -0.000009 -0.000006 0.000008 -0.000017 -0.000001 -0.000000 -0.000001 -0.000006 -0.001931 0.015966 0.000007 0.001914 -0.015979 0.000001 -0.000005 -0.000003 -0.000004 -0.000005 -0.000008 0.000001 0.000001 -0.000003 0.000001 -0.000002 -0.000002 -0.018098 4.054240 0.511060 -0.018089 -4.054251 -0.511059 -0.000001 -0.000003 0.000001 -0.000001 0.000002 0.000001 0.199127 -5.464830 5.846317 -40.201216 28.677451 7.199774 -0.000007 4.457076 0.000000 36.569024 21.327744 -11.047061 -1.908782 1.147437 -8.502727 4.645032 -8.656814 -0.231323 -0.000001 0.000002 -0.000001 0.007126 0.315402 -2.588947 -0.000003 0.000005 0.000015 0.000002 0.000003 0.000004 0.007122 0.315404 -2.588948 0.000003 0.000004 0.000018 -0.000001 0.000003 0.000003 0.007120 0.315405 -2.588949 0.000001 0.000009 0.000012 -0.000003 -0.000000 0.000001 0.007126 0.315402 -2.588946 -0.000007 0.000016 0.000024 -0.000002 -0.000000 0.000004 -0.000002 0.000003 -0.000003 -0.000000 -0.000000 -0.000000 -0.000000 -0.000000 -0.000000 -0.000000 -0.000000 -0.000000 -0.000000 -0.000000 -0.000000 -0.000000 -0.000000 -0.000000 -0.000000 -0.000000 -0.000000 -0.000000 0.000000 -0.000000 -0.000000 0.000000 -0.000000 -0.000000 0.000000 -0.000000 -0.000000 0.000001 -0.000000 
-0.232424 84.662872 3.856760 -5.505121 -10.550148 6.860576 -0.000000 0.000000 -0.000000 -24.739860 7.880586 7.456185 22.406116 8.713616 0.627131 26.233143 8.065515 -1.075638 0.000002 -0.000000 -0.000000 -0.000001 -0.000001 0.000001 -0.000000 -0.000000 0.000000 -4.276675 -7.405500 14.694951 21.615156 -11.193304 -1.125354 -14.801852 -12.022160 -19.835025 0.000000 -0.000004 0.000000 -0.000002 -0.000002 -0.000001 -0.000000 0.000000 0.000000 0.708072 1.094488 -3.805477 1.150022 2.492870 -4.561967 1.175539 2.502169 -4.546986 2.728369 1.302014 3.879430 7.459739 10.036894 8.266647 -0.000000 0.000000 -0.000001 -0.000000 0.000000 -0.000001 -0.000000 0.000000 -0.000001 -0.000000 0.000000 -0.000001 -0.000000 0.000000 -0.000001 -0.000000 0.000000 -0.000001 -0.000000 0.000000 -0.000001 -0.000000 0.000000 -0.000001 -0.000000 0.000000 -0.000001 -0.000000 0.000000 -0.000001 -0.000000 0.000000 -0.000001 -0.000000 0.000000 -0.000001 -0.000000 0.000000 -0.000001 -0.000000 0.000000 -0.000001 -0.000000 0.000000 -0.000001 -0.000000 0.000000 -0.000001 -0.000000 0.000000 -0.000001 -0.000000 0.000000 -0.000001 -0.000000 0.000000 -0.000001 0.919751 0.306314 -3.868008 -17.993288 11.628148 -29.784146 0.000009 -26.012420 0.000025 42.448809 -8.511068 -6.736304 -1.540035 3.690178 6.142337 3.946759 7.971414 0.752858 0.000000 -0.000001 0.000001 0.000005 -0.000001 -0.000006 -0.000006 0.000004 -0.000020 0.000000 -0.000000 -0.000001 -0.000005 -0.001925 0.015965 0.000003 0.001918 -0.015981 0.000001 -0.000001 -0.000004 -0.000002 -0.000001 -0.000009 0.000003 -0.000003 -0.000008 -0.000001 0.000002 0.000003 -0.018095 4.054242 0.511057 -0.018089 -4.054251 -0.511061 -0.000004 0.000001 -0.000000 -0.000003 0.000001 -0.000000 0.206929 -5.347461 5.805462 -41.452381 31.404086 7.845446 0.000017 4.254781 0.000001 36.426649 17.698528 -11.018028 -1.940990 0.213038 -8.122623 4.645026 -8.656810 -0.231322 -0.000000 0.000001 -0.000003 0.004588 0.253153 -2.077723 -0.000000 0.000001 0.000018 -0.000001 -0.000001 0.000001 0.004582 0.253148 -2.077721 0.000003 0.000009 0.000019 0.000001 -0.000001 0.000002 0.004588 0.253147 -2.077725 0.000003 0.000004 0.000013 -0.000002 -0.000004 -0.000001 0.004584 0.253151 -2.077721 -0.000006 0.000014 0.000025 -0.000001 -0.000003 0.000002 -0.000002 0.000000 -0.000002 -0.000000 -0.000000 0.000000 -0.000000 -0.000000 0.000000 -0.000000 -0.000000 0.000000 -0.000000 -0.000000 0.000000 -0.000000 -0.000000 0.000000 0.000000 -0.000000 0.000000 0.000000 0.000000 0.000000 0.000000 0.000000 0.000000 -0.000000 0.000001 -0.000000 -0.000000 0.000000 -0.000000 
-0.548769 84.756218 4.651924 -5.661585 -13.441815 7.349748 -0.000000 0.000000 0.000000 -26.040402 7.998532 5.640374 22.966677 8.763978 0.631501 26.734819 7.132821 -3.495066 0.000001 -0.000001 0.000000 -0.000000 0.000000 0.000001 -0.000002 -0.000000 0.000001 -3.581412 -7.302244 13.928672 23.395804 -11.117406 -1.071850 -15.901000 -10.639474 -18.306329 0.000001 0.000000 -0.000000 -0.000003 0.000000 -0.000001 -0.000000 0.000003 -0.000001 0.838469 1.275536 -4.078845 1.350766 2.961711 -4.730877 1.379869 2.974012 -4.712207 2.584064 1.463158 3.751657 7.038278 10.697006 8.064930 0.000000 0.000000 0.000000 0.000000 0.000000 0.000000 0.000000 0.000000 0.000000 0.000000 0.000000 0.000000 0.000000 0.000000 0.000000 0.000000 0.000000 0.000000 0.000000 0.000000 0.000000 0.000000 0.000000 0.000000 0.000000 0.000000 0.000000 0.000000 0.000000 0.000000 0.000000 0.000000 0.000000 0.000000 0.000000 0.000000 0.000000 0.000000 0.000000 0.000000 0.000000 0.000000 0.000000 0.000000 0.000000 0.000000 0.000000 0.000000 0.000000 0.000000 0.000000 0.000000 0.000000 0.000000 0.000000 0.000000 0.000000 0.757069 0.956893 -2.838908 -19.446295 10.332251 -26.706627 -0.000003 -27.039600 -0.000012 42.214121 -6.536529 -9.326117 -1.540036 3.690180 6.142341 3.946758 7.971416 0.752855 0.000000 -0.000000 -0.000001 0.000005 0.000000 -0.000007 -0.000004 -0.000001 -0.000019 0.000003 0.000001 0.000001 -0.000006 -0.001922 0.015967 0.000005 0.001913 -0.015983 0.000001 -0.000001 0.000000 0.000000 0.000003 -0.000010 0.000004 0.000000 -0.000005 0.000001 -0.000003 0.000005 -0.018098 4.054247 0.511062 -0.018090 -4.054249 -0.511060 -0.000002 0.000000 -0.000001 -0.000001 -0.000000 0.000002 0.212557 -5.231002 5.754127 -42.739499 34.146513 8.566001 -0.000011 4.063296 -0.000004 36.307916 13.991152 -11.057215 -1.951456 -0.743616 -7.734739 4.645027 -8.656817 -0.231322 0.000001 0.000005 -0.000004 0.002568 0.189402 -1.554385 -0.000003 0.000003 0.000018 -0.000001 0.000002 -0.000000 0.002569 0.189407 -1.554394 0.000009 0.000003 0.000013 -0.000001 -0.000002 -0.000002 0.002571 0.189412 -1.554387 0.000004 0.000007 0.000014 -0.000000 0.000002 -0.000004 0.002574 0.189406 -1.554391 -0.000001 0.000019 0.000027 -0.000003 -0.000001 0.000002 -0.000002 0.000000 -0.000002 0.000000 -0.000000 -0.000001 0.000000 -0.000000 -0.000001 0.000000 -0.000000 -0.000001 0.000000 -0.000000 -0.000001 0.000000 -0.000000 -0.000001 0.000000 -0.000000 -0.000001 -0.000000 0.000000 -0.000001 -0.000000 0.000000 -0.000001 0.000000 0.000000 -0.000000 -0.000000 0.000000 0.000000 
-0.882987 84.844788 5.416795 -5.833537 -16.277872 7.754364 -0.000001 -0.000000 -0.000000 -27.256780 8.235900 3.699418 23.533012 8.849941 0.648376 27.414282 6.564237 -5.838745 0.000001 0.000001 -0.000000 -0.000002 0.000000 -0.000000 0.000003 -0.000000 -0.000000 -2.859303 -7.228995 13.157235 25.131784 -11.029762 -1.017357 -16.945071 -9.360836 -16.750144 0.000000 -0.000003 0.000000 -0.000000 -0.000001 0.000001 0.000000 0.000001 0.000001 0.969774 1.468784 -4.326360 1.552686 3.454295 -4.875777 1.585065 3.469682 -4.853023 2.463897 1.609706 3.624302 6.649701 11.284551 7.868931 -0.000000 -0.000000 0.000001 -0.000000 -0.000000 0.000001 -0.000000 -0.000000 0.000001 -0.000000 -0.000000 0.000001 -0.000000 -0.000000 0.000001 -0.000000 -0.000000 0.000001 -0.000000 -0.000000 0.000001 -0.000000 -0.000000 0.000001 -0.000000 -0.000000 0.000001 -0.000000 -0.000000 0.000001 -0.000000 -0.000000 0.000001 -0.000000 -0.000000 0.000001 -0.000000 -0.000000 0.000001 -0.000000 -0.000000 0.000001 -0.000000 -0.000000 0.000001 -0.000000 -0.000000 0.000001 -0.000000 -0.000000 0.000001 -0.000000 -0.000000 0.000001 -0.000000 -0.000000 0.000001 0.574223 1.603289 -1.815879 -20.697792 9.000523 -23.723480 -0.000004 -27.489794 0.000004 42.273014 -4.912428 -12.211363 -1.540038 3.690181 6.142340 3.946760 7.971409 0.752862 0.000003 -0.000001 0.000001 0.000003 -0.000001 -0.000006 -0.000008 0.000006 -0.000020 0.000001 -0.000005 -0.000000 -0.000005 -0.001925 0.015966 0.000008 0.001911 -0.015982 0.000000 0.000000 -0.000003 -0.000000 0.000001 -0.000008 0.000002 -0.000004 -0.000003 0.000001 -0.000001 0.000004 -0.018097 4.054244 0.511064 -0.018094 -4.054246 -0.511061 -0.000002 0.000001 0.000001 0.000000 -0.000001 -0.000002 0.215349 -5.122708 5.672776 -43.983987 36.850144 9.221146 0.000013 3.892982 0.000001 35.960642 10.271133 -10.808901 -1.940595 -1.643846 -7.370410 4.645031 -8.656818 -0.231323 -0.000002 0.000001 -0.000002 0.001200 0.129397 -1.061777 -0.000003 0.000003 0.000018 -0.000001 0.000001 0.000005 0.001199 0.129400 -1.061776 0.000007 0.000003 0.000017 0.000002 -0.000000 -0.000002 0.001198 0.129395 -1.061774 0.000007 0.000005 0.000011 -0.000000 -0.000000 -0.000004 0.001201 0.129393 -1.061776 -0.000004 0.000015 0.000026 -0.000003 -0.000003 0.000005 -0.000001 0.000000 -0.000002 0.000000 0.000000 0.000000 0.000000 0.000000 0.000000 0.000000 0.000000 0.000000 0.000000 0.000000 0.000000 0.000000 0.000000 0.000000 0.000000 0.000000 0.000000 0.000000 0.000000 -0.000000 0.000000 0.000000 -0.000000 -0.000000 0.000000 0.000000 -0.000001 -0.000000 -0.000000 
